<?xml version="1.0" standalone="no"?>
<!DOCTYPE svg PUBLIC "-//W3C//DTD SVG 20010904//EN"
 "http://www.w3.org/TR/2001/REC-SVG-20010904/DTD/svg10.dtd">
<svg version="1.0" xmlns="http://www.w3.org/2000/svg"
 width="1080.000000pt" height="1080.000000pt" viewBox="0 0 1080.000000 1080.000000"
 preserveAspectRatio="xMidYMid meet">

<g transform="translate(0.000000,1080.000000) scale(0.100000,-0.100000)"
fill="#000000" stroke="none">
<path d="M6037 9263 c-4 -4 -193 -10 -420 -14 -441 -8 -530 -12 -702 -35 -60
-7 -162 -14 -225 -14 -63 0 -132 -5 -153 -11 -35 -9 -149 -89 -227 -159 -19
-17 -55 -48 -80 -68 -105 -86 -250 -214 -271 -240 -13 -16 -37 -46 -54 -67
-16 -22 -58 -71 -91 -110 -34 -38 -91 -115 -128 -170 -36 -55 -82 -120 -102
-145 -19 -25 -54 -83 -76 -130 -110 -233 -111 -238 -69 -330 16 -36 38 -74 50
-84 12 -11 26 -38 32 -60 6 -23 19 -59 29 -81 11 -22 23 -68 29 -102 5 -34 16
-77 24 -95 8 -18 20 -51 26 -74 6 -22 22 -63 37 -89 14 -27 32 -70 41 -95 8
-25 22 -63 32 -85 10 -22 31 -80 46 -130 15 -49 55 -148 90 -220 88 -182 124
-283 136 -377 11 -92 24 -125 67 -184 23 -32 40 -44 78 -53 142 -37 208 -75
251 -140 87 -134 109 -169 126 -199 24 -44 107 -274 102 -283 -3 -3 13 -25 35
-48 70 -73 82 -128 58 -260 -8 -43 -25 -87 -50 -128 -54 -90 -30 -92 53 -5 37
40 72 72 77 72 12 0 22 -24 22 -51 0 -11 -25 -85 -55 -165 -70 -183 -80 -267
-61 -484 14 -161 23 -188 89 -276 69 -94 86 -137 122 -309 44 -213 68 -261
170 -340 43 -34 132 -85 149 -85 6 0 34 -12 61 -25 28 -14 55 -25 61 -25 7 0
14 -7 18 -15 3 -8 14 -15 24 -15 11 0 25 -7 32 -15 6 -8 32 -27 56 -43 45 -30
184 -155 184 -166 0 -3 17 -23 38 -44 49 -48 96 -114 121 -169 10 -22 19 -88
20 -148 1 -21 8 -33 24 -40 36 -16 27 -39 -18 -47 -99 -17 -613 -2 -717 21
-25 6 -59 16 -75 23 -29 13 -121 66 -138 81 -5 4 -53 40 -105 79 -98 73 -154
103 -170 93 -28 -17 -2 -152 53 -275 37 -85 136 -190 211 -224 63 -29 153 -33
202 -8 21 11 73 25 114 32 41 7 98 22 125 33 39 15 73 19 160 18 111 -1 427
38 463 58 47 26 111 114 151 211 13 30 43 96 66 145 23 50 52 112 64 139 12
26 33 66 47 87 14 22 24 54 24 74 0 31 9 44 66 97 93 87 200 229 243 323 37
78 93 155 113 155 6 0 37 18 70 40 33 22 63 40 67 40 12 0 161 157 161 169 0
6 5 11 11 11 5 0 8 4 4 9 -3 6 3 15 14 21 11 5 26 22 33 38 7 15 20 27 28 27
16 0 21 -21 9 -45 -9 -20 -36 -215 -44 -320 -4 -47 -8 -87 -10 -88 -2 -2 -23
8 -48 22 -87 52 -135 33 -223 -87 -37 -50 -145 -167 -239 -261 -94 -94 -193
-202 -221 -241 -54 -77 -94 -151 -94 -177 0 -9 -4 -20 -10 -23 -5 -3 -10 -17
-10 -29 0 -13 -7 -29 -15 -36 -8 -7 -15 -21 -15 -32 0 -10 -7 -21 -15 -24 -8
-4 -15 -13 -15 -20 0 -27 -48 -110 -115 -199 -37 -49 -96 -133 -132 -187 -67
-102 -112 -143 -188 -170 -72 -25 -147 -69 -194 -113 -25 -24 -93 -67 -151
-96 l-104 -54 -126 -6 c-69 -4 -150 -8 -180 -9 l-55 -1 39 -15 c79 -29 490
-54 563 -34 90 24 231 149 276 244 15 31 63 96 109 147 146 161 171 195 158
219 -7 13 -7 20 0 20 5 0 10 5 10 12 0 6 18 33 40 59 43 51 60 86 60 125 0 15
6 24 15 24 8 0 14 3 13 8 -4 13 23 82 32 82 5 0 7 6 4 14 -3 9 5 21 20 31 14
10 23 21 20 26 -3 5 2 9 10 9 9 0 16 4 16 10 0 5 19 22 43 39 54 38 152 138
198 202 13 19 57 70 97 114 40 43 81 91 89 106 22 38 83 69 132 69 42 0 51 -9
28 -28 -22 -19 -135 -290 -153 -367 -4 -16 -22 -60 -41 -96 -29 -58 -44 -129
-27 -129 11 0 69 44 92 70 13 14 37 45 54 70 52 74 73 98 242 270 l162 165 12
65 c6 36 13 74 15 86 5 25 89 184 128 239 42 60 150 170 184 188 17 8 56 22
87 32 31 9 73 27 93 40 61 42 94 56 168 70 40 8 85 19 100 24 45 17 127 -21
199 -93 61 -61 88 -112 102 -191 12 -70 11 -75 -6 -75 -10 0 -18 4 -18 9 0 19
-87 100 -115 106 -29 6 -29 6 -10 -9 78 -59 123 -132 125 -201 1 -27 1 -53 0
-57 -2 -5 -3 -11 -5 -15 -1 -5 -5 -21 -10 -37 -5 -20 -4 -31 6 -38 10 -7 5 -8
-16 -4 -20 5 -25 4 -16 -3 9 -6 11 -15 6 -27 -5 -11 -7 -24 -6 -31 2 -13 -58
-123 -103 -189 -36 -53 -33 -62 7 -17 79 90 209 281 285 419 218 396 334 735
412 1205 22 134 30 209 25 235 -5 32 -8 35 -16 21 -8 -13 -22 -17 -57 -16 -93
3 -263 -49 -464 -143 -73 -34 -90 -39 -103 -28 -13 11 -10 17 23 49 27 27 57
42 103 55 35 10 71 22 79 28 26 16 -114 -1 -185 -23 -86 -26 -147 -26 -215 1
-41 16 -70 21 -113 18 -38 -3 -56 -1 -54 6 5 16 85 53 205 95 59 21 148 58
197 83 50 25 124 55 165 67 41 13 91 28 110 34 l35 11 -45 7 c-56 9 -266 -8
-343 -27 -32 -8 -84 -26 -115 -40 -175 -79 -284 -136 -319 -166 -51 -46 -169
-128 -182 -128 -34 0 26 113 85 164 44 36 206 112 284 131 36 9 81 21 101 26
39 10 86 45 75 56 -3 4 -39 10 -79 13 -43 4 9 6 128 6 257 -1 625 10 648 19
65 27 -73 113 -224 141 -46 8 -109 19 -139 24 -70 13 -267 12 -395 0 -108 -11
-189 -33 -220 -60 -11 -10 -40 -27 -65 -37 -62 -28 -142 -96 -178 -151 -16
-26 -41 -85 -55 -132 -24 -79 -78 -180 -97 -180 -4 0 -32 -21 -61 -47 -42 -38
-62 -68 -100 -148 -25 -55 -59 -138 -74 -185 -26 -79 -43 -109 -135 -245 -44
-64 -130 -147 -145 -141 -6 2 -20 -9 -29 -25 -13 -21 -23 -28 -36 -24 -10 3
-22 0 -26 -6 -4 -7 -3 -9 4 -5 6 3 13 2 16 -3 8 -13 -68 -50 -128 -62 -85 -17
-455 -12 -528 7 -62 16 -234 86 -318 129 -64 33 -72 35 -174 41 -50 3 -98 10
-106 14 -14 7 -91 24 -115 25 -6 0 -42 16 -80 35 -51 26 -102 67 -197 158 -71
67 -133 122 -137 122 -5 0 -7 -9 -4 -20 3 -11 10 -17 16 -13 6 3 7 1 3 -5 -4
-6 0 -19 8 -29 8 -10 35 -44 61 -75 25 -32 83 -89 129 -127 46 -39 94 -85 107
-102 46 -63 135 -144 182 -169 27 -13 68 -40 90 -61 52 -45 296 -219 308 -219
5 0 9 -11 9 -24 0 -13 5 -26 11 -28 14 -5 -5 -354 -22 -390 -33 -74 -150 -69
-317 14 -81 40 -104 54 -137 85 -8 7 -16 13 -19 13 -14 0 -83 83 -142 171 -93
139 -128 226 -346 854 -81 233 -99 293 -117 398 -6 37 -42 124 -95 235 -87
183 -118 270 -136 382 -6 36 -19 99 -31 140 -24 89 -42 161 -62 248 -11 50
-11 65 -2 69 26 9 310 -56 375 -86 44 -20 89 -33 137 -37 l72 -7 7 37 c3 21 3
64 0 96 -5 42 -3 61 6 69 20 17 77 53 141 90 60 34 153 93 174 111 7 6 16 10
21 10 5 0 15 7 22 15 16 20 17 20 -72 -14 -111 -43 -194 -87 -272 -143 -88
-64 -110 -72 -231 -88 -118 -15 -271 -3 -375 29 -36 11 -84 23 -107 27 -54 8
-47 22 13 22 57 0 69 11 84 75 17 71 56 144 120 227 19 25 38 50 42 55 4 6 28
34 53 63 83 96 112 162 127 282 2 14 9 24 16 22 8 -1 11 2 8 7 -9 14 28 105
53 132 11 12 21 19 21 14 0 -5 7 1 16 13 8 12 22 22 30 22 8 0 14 7 14 15 0 8
4 15 8 15 8 0 36 60 33 74 -1 4 12 29 29 55 16 26 30 53 30 59 0 7 7 9 17 5
13 -5 15 -2 10 11 -12 32 54 114 138 171 57 39 297 157 304 150 2 -3 14 1 26
9 12 8 60 22 106 31 132 25 219 46 289 68 63 19 81 27 200 81 106 48 194 66
272 56 83 -10 125 -35 218 -129 54 -54 77 -89 124 -186 65 -134 101 -192 157
-250 113 -119 179 -218 238 -356 23 -52 41 -97 41 -101 0 -20 -17 -4 -39 37
-13 24 -48 67 -77 95 -49 46 -58 51 -86 44 -55 -11 -273 -120 -360 -178 -156
-103 -166 -118 -173 -256 -7 -135 -21 -166 -95 -202 -73 -35 -166 -66 -226
-73 -48 -6 -49 -5 -65 27 -13 28 -23 34 -60 40 -89 13 -306 19 -373 9 -81 -12
-106 -28 -58 -37 54 -11 36 -28 -59 -54 -49 -13 -105 -33 -124 -45 -49 -29
-185 -135 -185 -144 0 -14 25 -31 47 -31 15 0 21 4 17 14 -3 9 6 21 23 32 15
9 52 32 80 51 61 38 63 39 63 15 0 -25 56 -77 104 -97 84 -35 184 7 201 85 4
17 11 30 17 30 14 0 68 -33 68 -41 0 -6 -26 -18 -72 -33 -10 -3 -18 -10 -18
-16 0 -14 50 -5 98 17 36 17 40 32 16 69 -15 22 -15 24 -1 18 12 -4 18 2 23
22 13 50 61 84 119 84 82 0 92 -34 29 -100 -29 -29 -34 -41 -34 -83 0 -43 4
-53 34 -81 28 -25 35 -40 38 -76 l3 -45 25 40 c23 37 25 49 25 160 l0 120 60
6 c33 3 71 11 84 18 31 17 117 16 144 -2 12 -8 40 -49 62 -92 55 -107 73 -129
92 -113 11 9 13 24 8 62 -8 67 12 146 38 146 10 0 65 -9 120 -21 117 -24 187
-21 260 11 40 18 48 27 59 63 14 50 29 63 45 41 6 -9 17 -13 23 -9 7 4 17 1
22 -6 7 -11 11 -11 15 -1 2 6 18 12 34 12 27 0 29 3 29 38 0 20 -9 75 -19 122
-12 52 -16 89 -10 96 5 6 32 14 59 17 28 3 55 9 60 12 26 16 -2 65 -68 118
-21 16 -22 19 -7 53 9 22 15 68 15 118 0 44 9 141 20 214 13 93 19 186 19 306
0 95 5 195 11 222 7 30 9 91 6 159 -6 97 -4 122 19 209 l25 100 -19 55 c-11
31 -30 88 -42 128 l-22 72 36 123 c50 171 54 204 27 261 -12 25 -32 53 -45 61
-14 9 -51 41 -84 71 -127 120 -187 152 -363 195 -46 11 -126 36 -178 55 -121
46 -188 61 -350 80 -133 15 -401 21 -413 8z m-947 -2173 c0 -5 -5 -10 -11 -10
-5 0 -7 5 -4 10 3 6 8 10 11 10 2 0 4 -4 4 -10z m2126 -312 c3 -5 -2 -18 -11
-28 -13 -14 -13 -19 -3 -23 7 -3 4 -6 -8 -6 -12 -1 -27 -8 -34 -15 -6 -8 -37
-20 -68 -26 -31 -7 -82 -25 -112 -40 -56 -29 -110 -43 -110 -30 0 4 7 10 15
14 8 3 15 12 15 19 0 17 51 52 141 97 109 56 158 66 175 38z m-381 -294 c-26
-22 -87 -54 -102 -54 -3 0 0 6 6 14 6 8 10 20 9 27 -2 10 51 28 112 38 3 0 -8
-11 -25 -25z m65 -49 c0 -38 24 -78 66 -112 l38 -30 -55 -7 c-68 -9 -199 18
-199 40 0 28 112 134 143 134 4 0 7 -11 7 -25z m119 11 c9 -10 8 -16 -4 -26
-19 -16 -41 1 -32 24 8 20 21 20 36 2z m137 -95 c-9 -10 -35 -24 -59 -31 -23
-8 -48 -18 -56 -24 -11 -9 -13 -8 -9 4 2 8 13 17 24 19 29 5 84 67 91 103 l7
33 9 -43 c7 -35 5 -47 -7 -61z m-1428 -159 c3 -17 -2 -22 -18 -22 -25 0 -38
29 -19 41 20 13 34 6 37 -19z m2502 -1233 c0 -12 -31 -19 -88 -19 -53 0 -64
13 -18 22 33 5 106 3 106 -3z m595 1 c-3 -5 -14 -10 -23 -10 -18 0 -112 -34
-152 -55 -14 -7 -54 -23 -90 -35 -128 -43 -171 -59 -198 -74 -111 -59 -217
-96 -209 -73 4 13 108 80 190 123 124 65 506 163 482 124z m-222 -260 c19 -19
22 -31 21 -102 -1 -75 -3 -82 -29 -104 -16 -14 -22 -24 -14 -24 48 0 -146
-103 -237 -126 l-27 -7 6 64 c4 35 12 68 17 73 6 6 10 45 10 88 0 75 1 78 23
78 12 0 39 9 60 19 l37 19 1 -22 c1 -20 1 -20 7 2 4 14 23 31 47 42 51 24 52
24 78 0z m-1261 -463 c-6 -7 -13 -30 -17 -52 -4 -22 -14 -58 -22 -80 -9 -22
-20 -58 -24 -80 -18 -92 -51 -230 -55 -234 -14 -15 15 169 46 283 34 128 69
213 78 188 2 -7 -1 -18 -6 -25z m118 8 c0 -9 -7 -32 -16 -53 -8 -20 -26 -84
-40 -141 -15 -64 -38 -128 -60 -167 -37 -66 -61 -93 -52 -57 3 11 1 28 -4 37
-6 11 -6 16 3 14 7 -2 18 22 28 60 9 35 19 61 22 57 4 -3 10 15 14 41 4 26 10
42 14 36 4 -7 13 11 20 40 22 92 71 182 71 133z m990 -7 c-19 -5 -39 -13 -45
-18 -18 -14 -78 -23 -71 -11 4 6 17 11 30 11 12 0 26 4 32 9 10 10 40 19 69
19 11 0 4 -4 -15 -10z m-2400 -373 c13 -14 19 -25 13 -25 -6 0 -18 11 -27 25
-9 14 -15 25 -13 25 2 0 14 -11 27 -25z m2327 -207 c-3 -8 -6 -5 -6 6 -1 11 2
17 5 13 3 -3 4 -12 1 -19z m-2982 -1178 c7 -12 -19 -12 -55 0 -22 7 -21 8 12
9 20 1 40 -3 43 -9z"/>
<path d="M8365 4470 c3 -5 8 -10 11 -10 2 0 4 5 4 10 0 6 -5 10 -11 10 -5 0
-7 -4 -4 -10z"/>
<path d="M5680 6620 c-217 -8 -355 -31 -443 -75 -78 -40 -176 -113 -198 -149
-45 -74 -8 -86 101 -31 131 66 211 87 355 93 132 5 299 -10 322 -29 6 -6 45
-11 86 -12 76 -2 90 4 158 68 21 20 32 19 54 -5 25 -28 45 -25 45 6 0 76 -80
128 -210 136 -41 2 -163 1 -270 -2z"/>
<path d="M7421 6083 c0 -16 -4 -44 -9 -63 -9 -40 10 -107 29 -102 9 2 10 -10
6 -42 -4 -25 -3 -47 1 -50 4 -2 9 -35 10 -73 6 -154 31 -315 52 -328 6 -3 10
-23 11 -43 l1 -37 9 44 c14 71 3 377 -15 444 -9 32 -16 70 -16 85 0 29 -61
191 -72 192 -4 0 -7 -12 -7 -27z"/>
<path d="M4055 5896 c-14 -20 -14 -29 -4 -48 40 -76 109 -76 148 0 16 30 2 48
-48 62 -56 16 -79 12 -96 -14z"/>
<path d="M4391 5724 c-36 -46 -27 -230 14 -278 21 -24 28 -26 91 -24 38 2 80
-1 94 -5 l25 -8 -25 20 c-14 11 -30 21 -35 21 -19 0 -48 85 -56 164 -12 120
-61 170 -108 110z"/>
<path d="M8098 5683 c-53 -21 -49 -37 8 -29 26 3 120 6 210 6 90 0 164 4 164
8 0 34 -309 46 -382 15z"/>
<path d="M6759 5572 c-47 -30 -139 -74 -177 -87 -16 -5 -30 -1 -44 12 -14 13
-35 18 -72 17 -56 0 -102 -20 -155 -67 -19 -16 -48 -35 -65 -43 -35 -15 -30
-17 33 -14 24 1 69 13 100 27 61 27 90 29 165 15 57 -12 94 -3 147 34 54 37
72 28 63 -34 -4 -36 -2 -57 11 -81 22 -43 65 -91 82 -91 27 0 11 -28 -43 -76
-84 -74 -93 -77 -193 -69 l-86 6 -149 -71 -150 -70 -105 4 c-110 5 -151 12
-151 27 0 5 9 9 21 9 12 0 18 4 13 11 -4 7 -25 9 -58 5 -85 -10 -144 -35 -187
-79 -32 -34 -39 -48 -39 -80 0 -42 32 -117 62 -143 16 -16 20 -14 63 28 43 43
50 46 143 62 53 9 124 24 157 31 111 27 229 52 330 70 55 10 143 33 195 52
114 41 237 71 305 74 79 3 81 2 58 -23 -36 -40 -41 -118 -8 -118 18 0 85 98
85 125 0 25 63 53 141 62 131 16 147 134 32 245 -45 44 -120 72 -218 82 -84 9
-205 35 -205 44 0 4 14 15 30 24 37 21 39 50 5 83 -33 34 -79 32 -136 -3z
m-117 -532 c-12 -11 -31 -20 -42 -20 -12 0 -68 -16 -126 -35 -96 -32 -154 -43
-154 -30 0 13 37 42 65 53 67 25 164 44 259 51 19 1 19 0 -2 -19z"/>
<path d="M6535 5290 c-11 -5 -34 -9 -51 -9 -68 -2 -157 -39 -213 -90 -55 -50
-59 -71 -15 -71 13 0 24 -4 24 -10 0 -5 -5 -10 -12 -10 -6 0 -9 -2 -6 -5 6 -6
117 32 248 87 93 38 105 46 106 68 1 46 -31 62 -81 40z m-31 -73 c-4 -12 -19
-19 -94 -45 -11 -4 -10 1 4 16 11 12 33 26 50 31 43 13 46 13 40 -2z"/>
<path d="M4095 4979 c-45 -22 -73 -46 -40 -35 10 4 38 10 62 13 24 3 43 10 43
14 0 5 9 9 19 9 11 0 23 5 26 10 11 18 -68 10 -110 -11z"/>
<path d="M7030 4794 c0 -8 5 -12 10 -9 6 4 8 11 5 16 -9 14 -15 11 -15 -7z"/>
<path d="M6989 4784 c-22 -27 -139 -99 -199 -122 -104 -40 -171 -55 -229 -50
-71 7 -81 3 -81 -32 0 -21 9 -35 33 -52 29 -21 43 -23 137 -23 84 1 114 5 151
22 56 25 171 132 205 189 23 39 24 46 11 64 -13 19 -15 19 -28 4z"/>
<path d="M7920 4011 c0 -5 -6 -11 -12 -14 -7 -2 -5 -3 4 -2 9 2 18 0 20 -4 6
-15 76 -61 91 -61 10 0 17 -5 17 -12 0 -6 3 -8 7 -5 7 8 -25 47 -39 47 -5 0
-19 9 -31 21 -30 28 -57 42 -57 30z"/>
<path d="M3578 3608 c-20 -17 -30 -46 -18 -53 6 -4 10 -18 10 -32 0 -21 -2
-24 -15 -13 -8 7 -15 19 -15 26 0 8 -12 20 -26 26 -20 10 -27 9 -34 -2 -13
-22 5 -48 94 -135 112 -110 225 -260 226 -299 0 -11 -9 -38 -19 -60 -27 -56
-81 -247 -81 -285 0 -32 -17 -78 -37 -98 -16 -18 -63 -17 -63 1 0 8 -7 16 -15
20 -8 3 -25 26 -37 51 -12 25 -27 45 -33 45 -7 0 -20 9 -29 19 -10 11 -28 22
-40 25 -14 3 -38 30 -61 68 -21 35 -76 120 -121 189 -45 69 -98 156 -118 195
-55 105 -84 156 -97 168 -7 6 -9 7 -6 1 6 -12 176 -441 247 -625 107 -276 176
-400 261 -464 119 -89 343 -195 365 -173 4 4 -1 13 -11 21 -16 12 -18 23 -12
122 4 61 14 166 22 234 8 69 22 188 30 265 8 77 23 178 32 225 11 53 18 131
18 209 l0 124 -120 69 c-107 62 -269 148 -278 148 -2 0 -10 -6 -19 -12z m307
-691 c6 -36 -18 -273 -28 -283 -6 -6 -61 37 -80 63 -18 23 -18 28 -3 100 8 42
23 96 33 120 15 36 23 43 45 43 24 0 27 -5 33 -43z m-405 -131 c0 -8 7 -16 15
-20 8 -3 15 -17 15 -31 0 -14 5 -25 10 -25 6 0 10 -5 10 -11 0 -6 9 -24 21
-40 17 -25 18 -29 4 -29 -9 0 -14 4 -10 9 3 6 -1 13 -8 18 -25 15 -85 143 -66
143 5 0 9 -6 9 -14z"/>
<path d="M2950 3598 c0 -3 12 -18 26 -34 17 -19 22 -22 16 -8 -10 20 -42 52
-42 42z"/>
<path d="M4034 3363 c2 -10 8 -38 11 -63 4 -25 20 -115 36 -200 26 -137 28
-162 19 -225 -5 -38 -19 -131 -30 -205 -23 -162 -37 -370 -24 -370 10 0 33 88
35 130 0 15 3 19 6 10 14 -33 49 182 56 334 3 79 17 88 88 53 93 -46 176 -105
187 -134 18 -47 35 -297 29 -413 -6 -107 1 -160 23 -160 6 0 10 28 10 69 0
121 43 638 77 928 4 39 2 59 -10 76 -21 32 -220 120 -358 157 -129 35 -163 38
-155 13z"/>
<path d="M3091 2905 c16 -24 34 -47 40 -50 5 -4 35 -41 68 -83 70 -92 114
-138 119 -123 2 6 -15 39 -37 72 -23 34 -41 63 -41 66 0 8 -60 85 -99 126 -20
21 -44 37 -58 37 -22 0 -22 0 8 -45z"/>
<path d="M6558 2722 c-1 -5 -29 -25 -60 -45 -32 -20 -58 -39 -58 -41 0 -2 28
4 62 15 59 18 78 31 78 56 0 15 -17 26 -22 15z"/>
<path d="M3300 2571 c14 -18 45 -44 70 -58 l45 -25 -49 46 c-27 26 -58 52 -70
58 -19 10 -19 9 4 -21z"/>
<path d="M6288 2514 c-18 -21 -48 -54 -66 -73 -45 -47 -54 -67 -46 -104 11
-52 44 -91 44 -53 0 20 18 30 33 17 19 -15 32 -2 63 64 21 43 29 75 28 113 0
74 -15 84 -56 36z"/>
<path d="M4122 2300 c0 -14 2 -19 5 -12 2 6 2 18 0 25 -3 6 -5 1 -5 -13z"/>
<path d="M3950 2190 c8 -5 22 -9 30 -9 10 0 8 3 -5 9 -27 12 -43 12 -25 0z"/>
<path d="M4000 2172 c0 -10 112 -62 133 -62 19 1 -35 39 -68 49 -16 5 -38 12
-47 16 -10 4 -18 3 -18 -3z"/>
<path d="M6395 2030 c-3 -5 -1 -10 4 -10 6 0 11 5 11 10 0 6 -2 10 -4 10 -3 0
-8 -4 -11 -10z"/>
</g>
</svg>
